<svg xmlns="http://www.w3.org/2000/svg" viewBox="0 0 48 48">
  <rect width="48" height="48" rx="10" fill="#111827"/>
  <path fill="#fff" d="M24 8c8.84 0 16 7.16 16 16 0 3.2-.94 6.18-2.56 8.68l3.12 3.12a2.4 2.4 0 0 1-3.4 3.4l-2.96-2.96A15.93 15.93 0 0 1 24 40c-8.84 0-16-7.16-16-16S15.16 8 24 8Zm0 5.2c-5.96 0-10.8 4.84-10.8 10.8S18.04 34.8 24 34.8c2.52 0 4.84-.86 6.68-2.32l-3.8-3.8a2.4 2.4 0 0 1 3.4-3.4l3.56 3.56A10.75 10.75 0 0 0 34.8 24c0-5.96-4.84-10.8-10.8-10.8Z"/>
  <circle cx="24" cy="24" r="4.8" fill="#10b981"/>
</svg>
